<?xml version="1.0" standalone="no"?>
<!DOCTYPE svg PUBLIC "-//W3C//DTD SVG 20010904//EN"
 "http://www.w3.org/TR/2001/REC-SVG-20010904/DTD/svg10.dtd">
<svg version="1.0" xmlns="http://www.w3.org/2000/svg"
 width="1272.000000pt" height="1272.000000pt" viewBox="0 0 1272.000000 1272.000000"
 preserveAspectRatio="xMidYMid meet">
<metadata>
Created by potrace 1.14, written by Peter Selinger 2001-2017
</metadata>
<g transform="translate(0.000000,1272.000000) scale(0.100000,-0.100000)"
fill="#000000" stroke="none">
<path d="M7546 10081 c-2 -3 -4 -1679 -4 -3724 0 -2774 3 -3717 12 -3714 6 2
23 1 38 -4 14 -4 29 -5 32 -1 3 3 34 4 69 3 34 -1 71 -2 82 -1 11 1 26 1 33 1
28 -2 39 -2 80 1 23 2 42 1 42 -2 0 -3 29 -3 65 0 36 3 65 2 65 -1 0 -4 16 -3
35 1 19 4 37 4 40 0 3 -4 20 -5 38 -1 18 5 41 5 52 1 11 -4 24 -5 29 -2 5 3
34 4 65 3 31 -1 63 -1 71 -1 8 0 26 0 40 -1 14 0 37 -1 53 0 15 0 38 0 52 1
14 0 33 0 43 0 9 0 44 0 77 -1 33 0 69 0 80 1 11 1 26 1 33 1 28 -2 39 -2 80
1 23 2 42 1 42 -2 0 -3 29 -3 65 0 36 3 65 2 65 -1 0 -4 16 -3 35 1 19 4 37 4
40 0 3 -4 20 -5 38 -1 18 5 41 5 52 1 11 -4 24 -5 29 -2 5 3 34 4 65 3 31 -1
63 -1 71 -1 8 0 26 0 40 -1 14 0 37 -1 53 0 15 0 38 0 52 1 14 0 33 0 43 0 9
0 44 0 77 -1 33 0 69 0 80 1 11 1 26 1 33 1 28 -2 39 -2 80 1 23 2 42 1 42 -2
0 -3 29 -3 65 0 36 3 65 2 65 -1 0 -4 16 -3 35 1 19 4 37 4 40 0 3 -4 20 -5
38 -1 18 5 41 5 52 1 11 -4 24 -5 29 -2 14 8 146 7 146 -1 0 -5 4 -5 10 -2 5
3 58 8 117 10 152 5 375 25 448 39 11 2 40 7 65 10 25 3 56 9 70 12 14 3 34 7
45 9 11 2 31 6 45 9 59 14 76 17 100 22 14 3 63 17 110 32 47 14 87 27 90 27
12 2 57 17 78 26 12 5 32 13 45 18 134 57 387 193 395 213 2 4 8 8 14 8 8 0
86 57 152 110 67 55 236 233 236 249 0 5 4 11 9 13 25 9 221 348 221 383 0 4
6 21 14 38 24 55 73 217 91 307 8 36 19 99 21 115 2 11 6 47 10 80 16 122 8
560 -11 625 -3 8 -7 29 -9 45 -10 67 -18 102 -28 135 -6 19 -12 41 -13 50 -2
21 -17 73 -24 85 -3 6 -6 17 -8 25 -7 43 -83 211 -141 310 -160 272 -365 484
-600 623 -76 45 -193 102 -257 126 -33 13 -69 27 -80 31 -11 5 -36 12 -55 16
-19 4 -39 9 -45 10 -74 19 -127 28 -202 33 -16 1 -14 71 3 78 7 2 21 6 31 8
10 2 18 4 18 5 0 1 7 3 15 5 8 2 29 9 45 16 17 6 36 13 43 15 8 1 21 6 30 10
9 4 19 8 22 9 56 19 223 101 290 143 83 52 145 95 148 104 2 4 7 8 12 8 15 0
135 112 203 189 96 109 261 414 257 476 0 3 6 21 15 41 8 19 14 38 14 42 -1 4
0 9 1 12 4 11 11 47 16 85 3 22 9 58 14 80 10 51 9 36 15 264 2 118 0 201 -6
213 -7 12 -6 18 1 18 6 0 9 3 6 8 -4 7 -11 46 -20 122 -15 120 -68 334 -89
359 -7 8 -10 15 -8 15 15 4 -113 285 -163 359 -14 21 -26 42 -26 47 0 6 -4 10
-10 10 -5 0 -10 5 -10 10 0 6 -4 16 -10 23 -100 124 -169 204 -211 244 -29 26
-57 53 -64 60 -6 6 -54 43 -106 82 -52 39 -99 75 -106 81 -7 5 -16 10 -21 10
-5 0 -21 9 -35 20 -42 34 -340 176 -387 186 -3 0 -12 3 -20 7 -51 20 -214 64
-270 72 -14 2 -25 4 -25 5 0 3 -77 18 -125 25 -19 3 -51 7 -70 10 -19 3 -57 8
-85 10 -27 3 -70 8 -95 11 -61 8 -2919 13 -2924 5z"/>
<path d="M3117 10064 c-2 -3 -176 -6 -385 -7 -209 -1 -382 -5 -384 -7 -6 -7
-75 -228 -84 -265 -4 -16 -9 -34 -13 -40 -3 -5 -6 -15 -7 -21 -1 -5 -21 -70
-44 -144 -23 -74 -43 -139 -44 -144 -1 -6 -5 -16 -8 -22 -4 -6 -9 -22 -12 -37
-2 -15 -7 -31 -11 -37 -3 -5 -8 -20 -11 -32 -7 -32 -8 -34 -34 -118 -14 -41
-25 -77 -25 -80 -1 -3 -12 -39 -25 -80 -13 -41 -25 -79 -26 -85 -2 -5 -35
-113 -74 -240 -40 -126 -81 -258 -91 -292 -42 -138 -125 -407 -162 -525 -14
-42 -22 -80 -19 -83 3 -3 0 -5 -7 -5 -7 0 -9 -4 -6 -10 3 -5 0 -22 -8 -37 -8
-15 -22 -59 -32 -98 -10 -38 -21 -75 -26 -80 -4 -6 -11 -24 -14 -40 -8 -39
-13 -59 -15 -62 -2 -2 -3 -6 -4 -10 -5 -20 -58 -192 -71 -228 -17 -51 -75
-238 -80 -262 -2 -10 -22 -74 -44 -143 -23 -69 -41 -132 -41 -140 0 -9 -4 -20
-9 -25 -4 -6 -16 -41 -26 -80 -10 -38 -24 -82 -31 -96 -7 -15 -15 -38 -18 -52
-4 -23 -24 -88 -117 -387 -18 -58 -34 -107 -34 -110 -1 -5 -31 -103 -75 -245
-53 -168 -87 -280 -105 -340 -10 -33 -26 -85 -36 -115 -19 -57 -90 -287 -94
-305 -1 -5 -5 -17 -9 -25 -5 -13 -43 -138 -50 -165 -1 -5 -7 -26 -13 -45 -24
-74 -95 -304 -98 -314 -1 -6 -5 -18 -8 -26 -8 -21 -31 -93 -33 -105 -2 -9
-137 -446 -269 -870 -47 -152 -56 -182 -60 -199 -1 -6 -5 -18 -8 -26 -6 -16
-43 -133 -97 -310 -18 -58 -41 -132 -51 -164 -10 -33 -19 -64 -19 -71 0 -8 98
-10 363 -9 199 2 419 3 488 3 l125 1 29 93 c50 164 83 270 120 387 21 63 39
122 40 130 1 8 5 22 8 30 7 19 31 92 33 103 1 4 2 8 4 10 1 1 3 10 6 20 2 9 5
23 7 30 13 50 80 254 86 260 4 4 412 10 907 13 494 2 1244 6 1666 8 422 3 772
7 778 11 5 3 10 1 10 -6 0 -9 3 -10 10 -3 6 6 35 7 70 4 34 -3 63 -4 65 -2 2
3 76 5 163 6 l159 1 33 -100 c17 -55 36 -111 40 -125 4 -14 11 -34 16 -45 4
-11 8 -27 10 -36 2 -9 9 -29 15 -45 7 -16 13 -33 14 -39 0 -5 4 -17 7 -25 10
-23 28 -84 28 -93 0 -4 7 -21 15 -37 8 -16 15 -32 15 -35 0 -3 0 -6 1 -7 0 -2
2 -11 4 -21 2 -10 7 -26 11 -35 4 -9 8 -19 8 -22 2 -13 29 -97 37 -115 4 -11
24 -71 44 -134 20 -63 41 -123 46 -132 8 -16 44 -17 489 -15 264 2 483 6 486
9 5 5 -7 54 -23 97 -4 8 -7 17 -8 20 -1 3 -4 12 -7 20 -4 8 -23 69 -43 135
-20 66 -40 129 -45 140 -9 21 -138 420 -210 650 -23 72 -45 137 -49 145 -5 9
-12 31 -16 50 -4 19 -10 40 -13 45 -4 6 -7 15 -8 20 -1 6 -22 71 -46 145 -82
249 -230 703 -233 714 -1 6 -5 19 -9 28 -4 9 -8 22 -10 30 -1 7 -5 19 -9 26
-5 6 -6 12 -2 12 3 0 -1 13 -10 30 -8 16 -15 32 -15 35 0 3 0 6 -1 8 0 1 -2 9
-4 17 -2 8 -10 34 -19 58 -8 23 -13 42 -9 42 3 0 1 6 -4 13 -9 11 -41 103 -48
137 -2 8 -8 29 -15 45 -6 17 -11 32 -12 35 0 3 -6 20 -13 38 -8 17 -11 32 -8
32 3 0 1 6 -5 13 -6 6 -11 17 -11 22 -1 6 -13 46 -27 90 -14 44 -27 85 -28 90
-1 6 -5 15 -8 21 -4 6 -9 21 -12 35 -2 13 -14 51 -26 84 -12 33 -23 67 -25 75
-4 20 -101 317 -132 405 -14 39 -26 78 -28 88 -2 10 -15 50 -29 90 -34 99
-209 639 -212 653 -1 7 -11 38 -22 70 -26 75 -222 681 -257 794 -15 47 -30 94
-35 105 -8 18 -113 343 -115 355 -1 3 -43 133 -94 290 -51 157 -94 290 -96
295 -1 6 -5 17 -8 25 -9 25 -49 144 -51 155 -4 19 -108 340 -116 360 -10 24
-79 234 -85 261 -3 10 -24 76 -47 145 l-43 125 -458 -2 c-252 -1 -461 -5 -464
-7 -2 -3 -17 -1 -33 3 -16 4 -31 6 -33 4z"/>
</g>
</svg>
