<svg width="666" height="118" viewBox="0 0 666 118" fill="none" xmlns="http://www.w3.org/2000/svg">
<path fill-rule="evenodd" clip-rule="evenodd" d="M145.085 36.1818V77.4545C145.085 81.8182 144.13 85.4091 142.221 88.2273C140.342 91.0455 138.009 93.1364 135.221 94.5C132.463 95.8636 129.751 96.5455 127.085 96.5455C122.63 96.5455 118.963 95.0303 116.085 92C113.236 88.9697 111.812 84.9091 111.812 79.8182V36.1818H101.085V80.5455C101.085 86.4848 102.054 91.4091 103.994 95.3182C105.933 99.197 108.6 102.106 111.994 104.045C115.388 105.955 119.266 106.909 123.63 106.909C128.903 106.909 133.266 105.682 136.721 103.227C140.176 100.742 142.721 97.7273 144.357 94.1818H145.085V106H155.812V36.1818H145.085ZM186.414 103.045C190.869 105.985 196.005 107.455 201.823 107.455C206.308 107.455 209.899 106.712 212.596 105.227C215.293 103.712 217.369 102 218.823 100.091C220.278 98.1515 221.399 96.5455 222.187 95.2727H223.46V106H233.823V12.9091H223.096V47.2727H222.187C221.399 46.0606 220.293 44.5151 218.869 42.6364C217.475 40.7273 215.444 39.0303 212.778 37.5455C210.141 36.0303 206.551 35.2727 202.005 35.2727C196.126 35.2727 190.944 36.7424 186.46 39.6818C181.975 42.6212 178.475 46.7879 175.96 52.1818C173.444 57.5758 172.187 63.9394 172.187 71.2727C172.187 78.6667 173.444 85.0758 175.96 90.5C178.475 95.8939 181.96 100.076 186.414 103.045ZM214.187 94.4545C211.217 96.697 207.581 97.8182 203.278 97.8182C198.793 97.8182 195.035 96.6364 192.005 94.2727C189.005 91.8788 186.732 88.6667 185.187 84.6364C183.672 80.5758 182.914 76.0606 182.914 71.0909C182.914 66.1818 183.657 61.7576 185.141 57.8182C186.657 53.8485 188.914 50.7121 191.914 48.4091C194.944 46.0758 198.732 44.9091 203.278 44.9091C207.641 44.9091 211.308 46.0151 214.278 48.2273C217.248 50.4091 219.49 53.4697 221.005 57.4091C222.52 61.3182 223.278 65.8788 223.278 71.0909C223.278 76.3636 222.505 81.0152 220.96 85.0455C219.414 89.0455 217.157 92.1818 214.187 94.4545ZM265.687 36.1818H254.96V106H265.687V36.1818ZM255.005 22.4091C256.52 23.8333 258.323 24.5455 260.414 24.5455C262.505 24.5455 264.293 23.8333 265.778 22.4091C267.293 20.9848 268.051 19.2727 268.051 17.2727C268.051 15.2727 267.293 13.5606 265.778 12.1364C264.293 10.7121 262.505 10 260.414 10C258.323 10 256.52 10.7121 255.005 12.1364C253.52 13.5606 252.778 15.2727 252.778 17.2727C252.778 19.2727 253.52 20.9848 255.005 22.4091ZM297.107 102.955C301.865 105.955 307.395 107.455 313.698 107.455C320.001 107.455 325.516 105.955 330.244 102.955C335.001 99.9545 338.698 95.7576 341.335 90.3636C344.001 84.9697 345.335 78.6667 345.335 71.4545C345.335 64.1818 344.001 57.8333 341.335 52.4091C338.698 46.9848 335.001 42.7727 330.244 39.7727C325.516 36.7727 320.001 35.2727 313.698 35.2727C307.395 35.2727 301.865 36.7727 297.107 39.7727C292.38 42.7727 288.683 46.9848 286.016 52.4091C283.38 57.8333 282.062 64.1818 282.062 71.4545C282.062 78.6667 283.38 84.9697 286.016 90.3636C288.683 95.7576 292.38 99.9545 297.107 102.955ZM325.516 94.1364C322.426 96.5909 318.486 97.8182 313.698 97.8182C308.91 97.8182 304.971 96.5909 301.88 94.1364C298.789 91.6818 296.501 88.4545 295.016 84.4545C293.532 80.4545 292.789 76.1212 292.789 71.4545C292.789 66.7879 293.532 62.4394 295.016 58.4091C296.501 54.3788 298.789 51.1212 301.88 48.6364C304.971 46.1515 308.91 44.9091 313.698 44.9091C318.486 44.9091 322.426 46.1515 325.516 48.6364C328.607 51.1212 330.895 54.3788 332.38 58.4091C333.865 62.4394 334.607 66.7879 334.607 71.4545C334.607 76.1212 333.865 80.4545 332.38 84.4545C330.895 88.4545 328.607 91.6818 325.516 94.1364ZM363.164 12.9091V106H396.801C404.134 106 410.088 104.909 414.664 102.727C419.24 100.545 422.588 97.5909 424.71 93.8636C426.831 90.1364 427.891 85.9394 427.891 81.2727C427.891 76.3636 426.922 72.2121 424.982 68.8182C423.043 65.4242 420.634 62.8182 417.755 61C414.876 59.1818 412.013 58.1818 409.164 58V57.0909C411.831 56.3636 414.301 55.2424 416.573 53.7273C418.876 52.2121 420.725 50.1515 422.119 47.5455C423.543 44.9394 424.255 41.6364 424.255 37.6364C424.255 33.0909 423.225 28.9545 421.164 25.2273C419.104 21.4697 415.967 18.4848 411.755 16.2727C407.543 14.0303 402.194 12.9091 395.71 12.9091H363.164ZM456.732 102.955C461.49 105.955 467.02 107.455 473.323 107.455C479.626 107.455 485.141 105.955 489.869 102.955C494.626 99.9545 498.323 95.7576 500.96 90.3636C503.626 84.9697 504.96 78.6667 504.96 71.4545C504.96 64.1818 503.626 57.8333 500.96 52.4091C498.323 46.9848 494.626 42.7727 489.869 39.7727C485.141 36.7727 479.626 35.2727 473.323 35.2727C467.02 35.2727 461.49 36.7727 456.732 39.7727C452.005 42.7727 448.308 46.9848 445.641 52.4091C443.005 57.8333 441.687 64.1818 441.687 71.4545C441.687 78.6667 443.005 84.9697 445.641 90.3636C448.308 95.7576 452.005 99.9545 456.732 102.955ZM485.141 94.1364C482.051 96.5909 478.111 97.8182 473.323 97.8182C468.535 97.8182 464.596 96.5909 461.505 94.1364C458.414 91.6818 456.126 88.4545 454.641 84.4545C453.157 80.4545 452.414 76.1212 452.414 71.4545C452.414 66.7879 453.157 62.4394 454.641 58.4091C456.126 54.3788 458.414 51.1212 461.505 48.6364C464.596 46.1515 468.535 44.9091 473.323 44.9091C478.111 44.9091 482.051 46.1515 485.141 48.6364C488.232 51.1212 490.52 54.3788 492.005 58.4091C493.49 62.4394 494.232 66.7879 494.232 71.4545C494.232 76.1212 493.49 80.4545 492.005 84.4545C490.52 88.4545 488.232 91.6818 485.141 94.1364ZM533.107 102.955C537.865 105.955 543.395 107.455 549.698 107.455C556.001 107.455 561.516 105.955 566.244 102.955C571.001 99.9545 574.698 95.7576 577.335 90.3636C580.001 84.9697 581.335 78.6667 581.335 71.4545C581.335 64.1818 580.001 57.8333 577.335 52.4091C574.698 46.9848 571.001 42.7727 566.244 39.7727C561.516 36.7727 556.001 35.2727 549.698 35.2727C543.395 35.2727 537.865 36.7727 533.107 39.7727C528.38 42.7727 524.683 46.9848 522.016 52.4091C519.38 57.8333 518.062 64.1818 518.062 71.4545C518.062 78.6667 519.38 84.9697 522.016 90.3636C524.683 95.7576 528.38 99.9545 533.107 102.955ZM561.516 94.1364C558.426 96.5909 554.486 97.8182 549.698 97.8182C544.91 97.8182 540.971 96.5909 537.88 94.1364C534.789 91.6818 532.501 88.4545 531.016 84.4545C529.532 80.4545 528.789 76.1212 528.789 71.4545C528.789 66.7879 529.532 62.4394 531.016 58.4091C532.501 54.3788 534.789 51.1212 537.88 48.6364C540.971 46.1515 544.91 44.9091 549.698 44.9091C554.486 44.9091 558.426 46.1515 561.516 48.6364C564.607 51.1212 566.895 54.3788 568.38 58.4091C569.865 62.4394 570.607 66.7879 570.607 71.4545C570.607 76.1212 569.865 80.4545 568.38 84.4545C566.895 88.4545 564.607 91.6818 561.516 94.1364ZM608.437 79.8717V106H597.71V12.9091H608.437V67.2727H609.71L640.255 36.1818H653.528L624.029 66.01L655.71 106H642.073L615.95 72.9108L608.437 79.8717ZM39.6307 13.3932L39.6024 13.3059L10.8182 106.459L23.0944 106.37L27.2247 93.0036L75.1192 92.7194L79.4276 105.993L91.7012 105.904L61.602 13.1753L61.5727 13.2703L61.5721 13.1755L39.6302 13.3057L39.6307 13.3932ZM32.8178 106.328L32.8216 106.316L38.4198 106.275L38.416 106.288L32.8178 106.328Z" fill="black"/>
</svg>
